<svg width="920" height="240" viewBox="0 0 920 240" fill="none" xmlns="http://www.w3.org/2000/svg" role="img" aria-labelledby="title desc">
  <title id="title">Data Analytics Workbench</title>
  <desc id="desc">A professional workbench-themed analytics logo with KPI tiles, data bars, and a line chart.</desc>
  <rect width="920" height="240" rx="28" fill="#F8FAFC"/>
  <rect x="38" y="38" width="238" height="142" rx="18" fill="#FFFFFF" stroke="#CBD5E1" stroke-width="4"/>
  <rect x="64" y="150" width="190" height="16" rx="8" fill="#334155"/>
  <rect x="82" y="166" width="18" height="44" rx="6" fill="#64748B"/>
  <rect x="218" y="166" width="18" height="44" rx="6" fill="#64748B"/>
  <rect x="66" y="66" width="44" height="44" rx="10" fill="#DBEAFE" stroke="#2563EB" stroke-width="3"/>
  <rect x="126" y="66" width="44" height="44" rx="10" fill="#E0F2FE" stroke="#0EA5E9" stroke-width="3"/>
  <rect x="186" y="66" width="44" height="44" rx="10" fill="#F1F5F9" stroke="#475569" stroke-width="3"/>
  <rect x="74" y="94" width="10" height="10" rx="3" fill="#2563EB"/>
  <rect x="90" y="82" width="10" height="22" rx="3" fill="#2563EB"/>
  <rect x="134" y="88" width="10" height="16" rx="3" fill="#0EA5E9"/>
  <rect x="150" y="78" width="10" height="26" rx="3" fill="#0EA5E9"/>
  <path d="M194 96L206 84L218 92" stroke="#475569" stroke-width="5" stroke-linecap="round" stroke-linejoin="round"/>
  <circle cx="194" cy="96" r="4" fill="#475569"/>
  <circle cx="206" cy="84" r="4" fill="#475569"/>
  <circle cx="218" cy="92" r="4" fill="#475569"/>
  <path d="M54 126H250" stroke="#CBD5E1" stroke-width="3" stroke-linecap="round"/>
  <path d="M74 128C98 118 114 136 139 123C167 109 180 124 210 110C225 103 236 99 250 101" stroke="#2563EB" stroke-width="5" stroke-linecap="round"/>
  <circle cx="74" cy="128" r="5" fill="#2563EB"/>
  <circle cx="139" cy="123" r="5" fill="#2563EB"/>
  <circle cx="210" cy="110" r="5" fill="#2563EB"/>
  <path d="M316 72H860" stroke="#CBD5E1" stroke-width="2"/>
  <text x="316" y="120" fill="#0F172A" font-family="Inter, Segoe UI, Arial, sans-serif" font-size="52" font-weight="800" letter-spacing="0">Data Analytics</text>
  <text x="316" y="166" fill="#2563EB" font-family="Inter, Segoe UI, Arial, sans-serif" font-size="44" font-weight="700" letter-spacing="0">Workbench</text>
  <text x="318" y="200" fill="#475569" font-family="Inter, Segoe UI, Arial, sans-serif" font-size="20" font-weight="500" letter-spacing="0">Profile, prepare, validate and analyze tabular data</text>
</svg>
