<svg width="220" height="220" viewBox="0 0 220 220" fill="none" xmlns="http://www.w3.org/2000/svg" role="img" aria-labelledby="title desc">
  <title id="title">DAW logo mark</title>
  <desc id="desc">Compact workbench-themed analytics mark with a table, KPI tiles, and a line chart.</desc>
  <rect x="8" y="8" width="204" height="204" rx="34" fill="#F8FAFC" stroke="#E2E8F0" stroke-width="4"/>
  <rect x="34" y="34" width="152" height="112" rx="18" fill="#FFFFFF" stroke="#CBD5E1" stroke-width="5"/>
  <rect x="50" y="130" width="120" height="16" rx="8" fill="#334155"/>
  <rect x="64" y="146" width="17" height="44" rx="6" fill="#64748B"/>
  <rect x="140" y="146" width="17" height="44" rx="6" fill="#64748B"/>
  <rect x="52" y="56" width="30" height="30" rx="8" fill="#DBEAFE" stroke="#2563EB" stroke-width="3"/>
  <rect x="95" y="56" width="30" height="30" rx="8" fill="#E0F2FE" stroke="#0EA5E9" stroke-width="3"/>
  <rect x="138" y="56" width="30" height="30" rx="8" fill="#F1F5F9" stroke="#475569" stroke-width="3"/>
  <rect x="60" y="75" width="7" height="7" rx="3" fill="#2563EB"/>
  <rect x="70" y="66" width="7" height="16" rx="3" fill="#2563EB"/>
  <rect x="103" y="69" width="7" height="13" rx="3" fill="#0EA5E9"/>
  <rect x="114" y="63" width="7" height="19" rx="3" fill="#0EA5E9"/>
  <path d="M145 78L153 68L164 76" stroke="#475569" stroke-width="4" stroke-linecap="round" stroke-linejoin="round"/>
  <path d="M52 112C72 100 85 118 106 107C128 96 142 112 168 98" stroke="#2563EB" stroke-width="5" stroke-linecap="round"/>
  <circle cx="52" cy="112" r="5" fill="#2563EB"/>
  <circle cx="106" cy="107" r="5" fill="#2563EB"/>
  <circle cx="168" cy="98" r="5" fill="#2563EB"/>
</svg>
